<?xml version="1.0" encoding="utf-8"?>
<!-- Generator: Adobe Illustrator 28.0.0, SVG Export Plug-In . SVG Version: 6.00 Build 0)  -->
<svg version="1.1" id="Calque_1" xmlns="http://www.w3.org/2000/svg" xmlns:xlink="http://www.w3.org/1999/xlink" x="0px" y="0px"
	 viewBox="0 0 1920 1080" style="enable-background:new 0 0 1920 1080;" xml:space="preserve">
<style type="text/css">
	.st0{display:none;fill:#0F0F0F;}
	.st1{fill:#0F0F0F;}
	.st2{display:none;}
	.st3{display:inline;fill:#0F0F0F;}
</style>
<g>
	<g>
		<path class="st0" d="M832.51,700.98c-20.99,0-38-17.01-38-38c0-89.48-1.11-173.88-14.45-223.1c-5.13-18.9-11.86-32.18-20.02-39.46
			c-4.6-4.1-12.93-9.56-32.12-9.56c-19.99,0-45.47,17.88-69.91,49.04c-24.25,30.92-37.6,62.52-39.28,71v152.07
			c0,20.99-17.01,38-38,38s-38-17.01-38-38V352.86c0-20.99,17.01-38,38-38s38,17.01,38,38v16.44
			c42.68-44.22,81.99-54.44,109.19-54.44c33.44,0,61.27,9.71,82.73,28.86c19.6,17.5,33.58,42.44,42.76,76.27
			c14.38,53.02,17.1,126.3,17.1,242.99C870.51,683.97,853.49,700.98,832.51,700.98z"/>
		<path class="st0" d="M1131.5,703.4c-27.43,0-69.79-9.34-106.41-35.54c-32.05-22.93-70.26-66.44-70.26-143.48
			c0-50.84,15.99-102.33,43.87-141.25c32.65-45.58,78.35-70.68,128.69-70.68c13.59,0,34.62,1.63,57.65,9.4
			c26.99,9.11,48.09,26.48,61.01,50.23c11.45,21.06,15.55,46.13,11.53,70.59c-4.03,24.53-15.97,47.05-33.64,63.42
			c-19.92,18.46-45.55,28.22-74.12,28.22h-118.67c2.13,31.41,14.67,54.94,38.15,71.74c23.61,16.89,51,21.35,62.19,21.35
			c29.68,0,53.77-7.05,71.58-20.97c0.47-0.37,0.92-0.73,1.37-1.09c12.89-10.5,30.39-13.33,45.76-6.99l0.7,0.29
			c23.25,9.58,29.04,39.91,10.9,57.33c-2.07,1.99-4.28,4-6.61,5.99C1233.09,680.87,1193.68,703.4,1131.5,703.4z M1043.68,458.31
			h106.14c26.14,0,31.69-21.39,32.76-27.95c1.06-6.48,2.63-28.25-21.84-36.5c-13.96-4.71-26.89-5.41-33.36-5.41
			C1089.41,388.45,1059.62,418.84,1043.68,458.31z"/>
		<path class="st1" d="M960,311.97c-108.22,0-195.95,87.73-195.95,195.95c0,108.22,87.73,195.95,195.95,195.95
			s195.95-87.73,195.95-195.95C1155.95,399.7,1068.22,311.97,960,311.97z M894.42,498.92c-8.84-0.84-16.02-7.91-17.01-16.73
			c-0.4-3.53,0.19-6.88,1.51-9.84c0.5-1.12,1.85-1.57,2.92-0.97c0.95,0.54,2.08,0.77,3.29,0.57c2.02-0.33,3.68-1.95,4.06-3.96
			c0.21-1.13,0.04-2.19-0.4-3.11c-0.52-1.08,0.09-2.39,1.22-2.78c2.21-0.78,4.6-1.16,7.1-1.05c10.14,0.44,18.29,9.06,18.17,19.21
			C915.14,491.25,905.66,499.99,894.42,498.92z M960,624.42c-19.01,0-56.49-26.46-56.49-56.49c0-37.96,112.98-37.75,112.98,0
			C1016.49,597.95,979.01,624.42,960,624.42z M1021.87,498.92c-8.84-0.84-16.02-7.91-17.01-16.73c-0.4-3.53,0.19-6.88,1.51-9.84
			c0.5-1.12,1.85-1.57,2.92-0.97c0.95,0.54,2.08,0.77,3.29,0.57c2.02-0.33,3.68-1.95,4.06-3.96c0.21-1.13,0.04-2.19-0.4-3.11
			c-0.52-1.08,0.09-2.39,1.22-2.78c2.21-0.78,4.6-1.16,7.1-1.05c10.14,0.44,18.29,9.06,18.17,19.21
			C1042.58,491.25,1033.11,499.99,1021.87,498.92z"/>
	</g>
	<g class="st2">
		<path class="st3" d="M1369.66,664.62c2.6,2.15,4.52,4.6,5.75,7.32c1.24,2.73,1.85,5.67,1.85,8.84c0,3.36-0.57,6.46-1.71,9.32
			s-2.74,5.29-4.8,7.32c-2.06,2.03-4.5,3.61-7.32,4.75c-2.82,1.14-5.91,1.71-9.27,1.71c-3.36,0-6.45-0.57-9.27-1.71
			c-2.82-1.14-5.26-2.72-7.32-4.75c-2.06-2.03-3.66-4.47-4.8-7.32s-1.71-5.96-1.71-9.32c0-3.23,0.67-6.23,2-8.98
			c1.33-2.76,3.2-5.21,5.61-7.37l3.42,4.56c-1.84,1.65-3.28,3.45-4.32,5.42c-1.05,1.96-1.57,4.09-1.57,6.37
			c0,2.66,0.48,5.07,1.43,7.22c0.95,2.15,2.23,3.99,3.85,5.51c1.62,1.52,3.52,2.68,5.7,3.47c2.19,0.79,4.52,1.19,6.99,1.19
			c2.47,0,4.8-0.39,6.99-1.19c2.19-0.79,4.09-1.95,5.7-3.47c1.62-1.52,2.9-3.36,3.85-5.51c0.95-2.15,1.43-4.56,1.43-7.22
			c0-2.41-0.55-4.61-1.66-6.61c-1.11-2-2.58-3.72-4.42-5.18L1369.66,664.62z"/>
		<path class="st3" d="M1354.17,629.64c-3.36,0-6.45-0.57-9.27-1.71c-2.82-1.14-5.26-2.72-7.32-4.75c-2.06-2.03-3.66-4.47-4.8-7.32
			s-1.71-5.96-1.71-9.32c0-3.36,0.57-6.45,1.71-9.27c1.14-2.82,2.74-5.26,4.8-7.32c2.06-2.06,4.5-3.66,7.32-4.8
			c2.82-1.14,5.91-1.71,9.27-1.71c3.36,0,6.45,0.57,9.27,1.71c2.82,1.14,5.26,2.74,7.32,4.8c2.06,2.06,3.66,4.5,4.8,7.32
			c1.14,2.82,1.71,5.91,1.71,9.27c0,3.36-0.57,6.46-1.71,9.32s-2.74,5.29-4.8,7.32c-2.06,2.03-4.5,3.61-7.32,4.75
			C1360.62,629.07,1357.53,629.64,1354.17,629.64z M1354.17,623.94c2.47,0,4.8-0.39,6.99-1.19c2.19-0.79,4.09-1.95,5.7-3.47
			c1.62-1.52,2.9-3.36,3.85-5.51c0.95-2.15,1.43-4.56,1.43-7.22c0-2.66-0.48-5.07-1.43-7.22c-0.95-2.15-2.23-3.99-3.85-5.51
			c-1.62-1.52-3.52-2.68-5.7-3.47c-2.19-0.79-4.52-1.19-6.99-1.19c-2.47,0-4.8,0.4-6.99,1.19c-2.19,0.79-4.09,1.95-5.7,3.47
			c-1.62,1.52-2.9,3.36-3.85,5.51c-0.95,2.15-1.43,4.56-1.43,7.22c0,2.66,0.48,5.07,1.43,7.22c0.95,2.15,2.23,3.99,3.85,5.51
			c1.62,1.52,3.52,2.68,5.7,3.47C1349.37,623.54,1351.7,623.94,1354.17,623.94z"/>
		<path class="st3" d="M1344.57,542.19c-0.82,0-1.82,0.03-2.99,0.1c-1.17,0.06-2.36,0.11-3.56,0.14c-1.2,0.03-2.33,0.08-3.37,0.14
			c-1.05,0.06-1.85,0.1-2.42,0.1v-5.7c1.65-0.06,3.23-0.11,4.75-0.14c1.52-0.03,2.5-0.11,2.95-0.24v-0.29
			c-2.41-1.14-4.48-3.04-6.23-5.7c-1.74-2.66-2.61-5.77-2.61-9.32c0-2.91,0.75-5.58,2.23-7.98c1.49-2.41,3.91-4.15,7.27-5.23
			c-3.29-1.39-5.7-3.47-7.22-6.23c-1.52-2.76-2.28-5.66-2.28-8.7c0-3.42,0.54-6.21,1.62-8.37c1.08-2.15,2.49-3.85,4.23-5.08
			c1.74-1.24,3.75-2.09,6.04-2.57c2.28-0.47,4.63-0.71,7.03-0.71h26.14v5.7h-25.85c-1.77,0-3.5,0.16-5.18,0.48
			c-1.68,0.32-3.18,0.87-4.52,1.66c-1.33,0.79-2.39,1.9-3.18,3.33c-0.79,1.43-1.19,3.28-1.19,5.56c0,2.66,0.49,4.85,1.47,6.56
			c0.98,1.71,2.23,3.06,3.75,4.04c1.52,0.98,3.17,1.68,4.94,2.09c1.77,0.41,3.45,0.62,5.04,0.62h24.71v5.7h-26.43
			c-4.06,0-7.32,0.75-9.79,2.23c-2.47,1.49-3.71,3.79-3.71,6.89c0,2.09,0.37,4.07,1.09,5.94c0.73,1.87,1.84,3.49,3.33,4.85
			c1.49,1.36,3.36,2.44,5.61,3.23c2.25,0.79,4.9,1.19,7.94,1.19h21.96v5.7H1344.57z"/>
		<path class="st3" d="M1344.57,432.69c-0.82,0-1.82,0.03-2.99,0.1c-1.17,0.06-2.36,0.11-3.56,0.14c-1.2,0.03-2.33,0.08-3.37,0.14
			c-1.05,0.06-1.85,0.1-2.42,0.1v-5.7c1.65-0.06,3.23-0.11,4.75-0.14c1.52-0.03,2.5-0.11,2.95-0.24v-0.29
			c-2.41-1.14-4.48-3.04-6.23-5.7c-1.74-2.66-2.61-5.77-2.61-9.32c0-2.91,0.75-5.58,2.23-7.98c1.49-2.41,3.91-4.15,7.27-5.23
			c-3.29-1.39-5.7-3.47-7.22-6.23c-1.52-2.76-2.28-5.66-2.28-8.7c0-3.42,0.54-6.21,1.62-8.36c1.08-2.15,2.49-3.85,4.23-5.09
			c1.74-1.24,3.75-2.09,6.04-2.57c2.28-0.48,4.63-0.71,7.03-0.71h26.14v5.7h-25.85c-1.77,0-3.5,0.16-5.18,0.48
			c-1.68,0.32-3.18,0.87-4.52,1.66c-1.33,0.79-2.39,1.9-3.18,3.33c-0.79,1.43-1.19,3.28-1.19,5.56c0,2.66,0.49,4.85,1.47,6.56
			c0.98,1.71,2.23,3.06,3.75,4.04c1.52,0.98,3.17,1.68,4.94,2.09c1.77,0.41,3.45,0.62,5.04,0.62h24.71v5.7h-26.43
			c-4.06,0-7.32,0.75-9.79,2.23c-2.47,1.49-3.71,3.79-3.71,6.89c0,2.09,0.37,4.07,1.09,5.94c0.73,1.87,1.84,3.49,3.33,4.85
			c1.49,1.36,3.36,2.44,5.61,3.23c2.25,0.79,4.9,1.19,7.94,1.19h21.96v5.7H1344.57z"/>
		<path class="st3" d="M1308.83,318.91v-6.94l21.67,7.32v5.61L1308.83,318.91z"/>
	</g>
</g>
</svg>
