<svg width="143" height="150" viewBox="0 0 143 150" fill="none" xmlns="http://www.w3.org/2000/svg">
<path d="M105.785 46.5513C105.785 66.4089 89.7866 82.5071 70.0522 82.5071C64.043 82.5071 58.372 81.0113 53.401 78.3757C49.9087 76.5237 37.2375 82.6654 35.7824 81.0667C34.3273 79.4679 39.8488 66.0686 38.3072 63.0769C35.7588 58.1303 34.3194 52.511 34.3194 46.5592C34.3194 26.7016 50.3178 10.6034 70.0522 10.6034C89.7866 10.6034 105.785 26.7016 105.785 46.5592V46.5513Z" stroke="#EFEFEF" stroke-width="4" stroke-miterlimit="10"/>
<path d="M53.1067 49.8908C54.9378 49.8908 56.4221 48.3974 56.4221 46.5551C56.4221 44.7128 54.9378 43.2194 53.1067 43.2194C51.2757 43.2194 49.7913 44.7128 49.7913 46.5551C49.7913 48.3974 51.2757 49.8908 53.1067 49.8908Z" fill="#EFEFEF"/>
<path d="M70.0522 49.8908C71.8832 49.8908 73.3676 48.3974 73.3676 46.5551C73.3676 44.7128 71.8832 43.2194 70.0522 43.2194C68.2211 43.2194 66.7368 44.7128 66.7368 46.5551C66.7368 48.3974 68.2211 49.8908 70.0522 49.8908Z" fill="#EFEFEF"/>
<path d="M86.9976 49.8908C88.8286 49.8908 90.313 48.3974 90.313 46.5551C90.313 44.7128 88.8286 43.2194 86.9976 43.2194C85.1665 43.2194 83.6822 44.7128 83.6822 46.5551C83.6822 48.3974 85.1665 49.8908 86.9976 49.8908Z" fill="#EFEFEF"/>
<path d="M5.58588 122.536L31.1351 101.886C33.595 99.9019 36.6466 98.8151 39.7916 98.8151H92.9764C97.5615 98.8151 96.0435 113.251 86.5929 113.251H57.852" stroke="#EFEFEF" stroke-width="4" stroke-miterlimit="10" stroke-linecap="round"/>
<path d="M104.671 96.4457L124.065 76.9029C126.458 74.4915 130.34 74.4915 132.725 76.9029C134.978 79.173 135.126 82.8097 133.068 85.2604L98.1315 126.773C95.4891 129.915 91.6072 131.729 87.5149 131.729H47.9714C44.9392 131.729 42.0162 132.868 39.779 134.919L30.6356 143.292" stroke="#EFEFEF" stroke-width="4" stroke-miterlimit="10" stroke-linecap="round"/>
</svg>
